<?xml version="1.0" standalone="no"?>
<!DOCTYPE svg PUBLIC "-//W3C//DTD SVG 20010904//EN"
 "http://www.w3.org/TR/2001/REC-SVG-20010904/DTD/svg10.dtd">
<svg version="1.0" xmlns="http://www.w3.org/2000/svg"
 width="2340.000000pt" height="1080.000000pt" viewBox="0 0 2340.000000 1080.000000"
 preserveAspectRatio="xMidYMid meet">

<g transform="translate(0.000000,1080.000000) scale(0.100000,-0.100000)"
fill="#000000" stroke="none">
<path d="M11435 9965 c-33 -7 -105 -31 -160 -53 -55 -22 -136 -50 -180 -61
-44 -11 -105 -29 -137 -40 -31 -11 -59 -17 -62 -14 -3 3 -13 0 -21 -7 -9 -7
-38 -24 -66 -36 -28 -13 -69 -37 -92 -54 -23 -16 -88 -50 -144 -74 -168 -73
-322 -185 -517 -376 -265 -260 -296 -298 -405 -511 -52 -101 -110 -208 -129
-238 -51 -80 -67 -124 -97 -261 -16 -74 -45 -166 -71 -227 -24 -56 -49 -124
-55 -150 -7 -31 -12 -176 -12 -413 0 -356 1 -368 26 -482 14 -65 41 -152 60
-195 65 -144 109 -257 139 -353 32 -104 97 -233 204 -407 57 -93 97 -140 234
-280 91 -93 201 -196 245 -228 44 -32 105 -80 136 -105 31 -26 144 -97 250
-158 l194 -110 235 -70 c147 -44 276 -76 345 -86 61 -9 146 -22 190 -31 115
-21 297 -19 440 5 66 11 141 20 167 20 25 0 82 7 125 15 43 8 125 22 182 31
58 8 139 26 180 40 42 13 84 24 93 24 9 0 23 8 30 18 15 21 213 153 400 266
288 174 643 563 794 871 22 44 72 141 111 216 105 202 112 240 123 629 5 173
14 385 21 472 7 86 9 189 6 230 -7 78 -66 299 -116 437 -17 46 -38 126 -47
179 -19 122 -52 215 -111 317 -25 44 -55 97 -66 118 -11 21 -26 37 -37 37 -11
0 -38 30 -71 78 -67 97 -149 184 -264 280 -105 87 -113 95 -165 184 -51 86
-93 119 -204 164 -50 19 -142 67 -205 105 -109 66 -137 78 -276 112 -33 8
-121 31 -195 51 -102 28 -166 39 -260 45 -106 7 -137 13 -203 40 -58 24 -103
34 -180 41 -142 13 -311 11 -382 -5z m1213 -858 c41 -20 97 -53 126 -72 57
-38 741 -712 854 -842 88 -102 102 -128 102 -196 0 -41 -6 -63 -29 -98 -15
-25 -255 -273 -533 -552 -407 -408 -515 -511 -554 -528 -56 -25 -96 -27 -372
-11 -174 10 -197 13 -248 37 l-55 26 5 60 c6 78 26 108 117 178 55 43 102 93
170 183 122 161 173 214 297 310 70 54 126 108 172 166 38 48 88 101 111 117
96 70 91 130 -18 232 -68 63 -375 395 -417 450 -22 29 -77 83 -124 120 -108
87 -219 204 -243 257 -10 22 -19 56 -19 74 0 22 -5 32 -15 32 -8 0 -15 9 -15
20 0 17 21 29 60 35 3 0 16 7 29 14 49 27 80 30 301 28 l225 -2 73 -38z m12
-1073 c30 -17 54 -37 53 -45 -13 -86 -27 -114 -82 -163 -31 -28 -105 -103
-166 -166 -60 -63 -194 -198 -298 -299 -103 -101 -216 -219 -251 -261 -35 -41
-98 -105 -141 -140 -44 -36 -152 -138 -241 -227 -169 -168 -221 -206 -285
-205 -50 1 -91 23 -169 91 -36 32 -85 71 -110 88 -89 61 -120 109 -120 185 0
67 34 120 138 219 54 49 146 145 205 212 59 67 165 175 235 240 70 64 152 143
182 176 118 125 265 252 327 283 80 39 153 46 443 44 l225 -1 55 -31z m-1095
6 c22 -11 44 -20 51 -20 23 0 38 -29 26 -53 -6 -12 -16 -40 -23 -62 -13 -43
-83 -116 -644 -675 -147 -146 -273 -278 -282 -294 -30 -58 -13 -89 126 -226
70 -69 269 -274 443 -457 250 -262 322 -343 343 -388 28 -58 27 -82 -2 -91
-10 -3 -31 -13 -48 -22 -26 -15 -67 -17 -315 -17 -349 0 -359 2 -459 105 -36
37 -102 95 -146 127 -56 41 -99 85 -140 139 -32 43 -116 135 -186 204 -70 69
-145 150 -167 181 -24 33 -65 72 -99 95 -167 110 -247 243 -213 350 19 59 54
99 133 153 100 68 137 102 220 206 41 50 112 121 162 162 108 87 170 153 237
253 67 100 90 123 173 180 39 26 77 55 84 64 27 32 93 79 129 92 27 10 109 13
297 14 242 0 264 -1 300 -20z"/>
<path d="M10130 4395 c0 -8 7 -15 15 -15 8 0 15 7 15 15 0 8 -7 15 -15 15 -8
0 -15 -7 -15 -15z"/>
<path d="M3745 4305 c-5 -2 -22 -6 -37 -9 -41 -9 -95 -61 -113 -109 -14 -37
-15 -100 -13 -508 l3 -465 28 -42 c15 -23 45 -51 67 -62 38 -19 57 -20 635
-20 l595 0 -2 183 -3 182 -482 3 -483 2 0 240 0 240 485 0 485 0 0 179 c0 154
-2 180 -16 185 -16 6 -1131 7 -1149 1z"/>
<path d="M5056 4301 c-4 -5 101 -171 231 -368 l238 -358 3 -242 3 -243 179 0
180 0 0 243 0 242 238 360 c150 226 234 363 228 367 -20 14 -330 9 -348 -4 -9
-7 -77 -106 -152 -220 -74 -113 -139 -209 -145 -212 -5 -3 -76 94 -158 217
l-148 222 -172 3 c-102 1 -174 -1 -177 -7z"/>
<path d="M6543 4304 c-10 -5 -13 -136 -13 -610 l0 -604 655 0 c638 0 657 1
695 20 23 12 52 39 68 63 l27 42 3 460 c3 489 2 510 -44 565 -58 68 -20 65
-734 67 -355 1 -651 -1 -657 -3z m1075 -421 l-3 -58 -360 0 -360 0 -3 58 -3
57 366 0 366 0 -3 -57z m2 -368 l0 -55 -365 0 -365 0 0 55 0 55 365 0 365 0 0
-55z"/>
<path d="M8314 4301 c-50 -12 -90 -47 -118 -103 l-26 -52 0 -448 c0 -489 0
-490 58 -551 56 -59 24 -57 737 -57 l655 0 0 185 0 185 -545 0 c-518 0 -545 1
-545 18 0 42 1 42 557 42 l533 0 0 180 0 180 -542 2 -543 3 0 25 0 25 543 3
542 2 -2 183 -3 182 -635 2 c-349 0 -649 -2 -666 -6z"/>
<path d="M9852 4302 c-10 -7 -12 -135 -10 -608 l3 -599 180 0 180 0 3 423 2
422 300 0 300 0 0 -30 0 -30 -240 0 -240 0 0 -180 0 -180 43 0 c23 0 48 -4 55
-9 7 -4 68 -100 136 -212 l122 -204 237 -3 c184 -2 237 0 237 10 0 7 -52 100
-116 206 -128 214 -128 212 -38 212 64 0 109 29 144 90 25 45 25 46 25 310 0
245 -2 268 -20 305 -11 22 -36 48 -55 60 -34 19 -53 20 -635 23 -330 1 -606
-1 -613 -6z"/>
<path d="M12252 4302 c-10 -7 -12 -135 -10 -608 l3 -599 727 0 726 0 43 30
c24 17 52 46 64 65 19 34 20 52 23 569 2 428 0 536 -10 542 -15 10 -318 12
-342 3 -14 -5 -16 -52 -16 -425 l0 -420 -122 3 -123 3 -2 405 c-1 223 -4 413
-7 423 -4 15 -20 17 -164 17 -88 0 -167 -3 -176 -6 -14 -5 -16 -52 -16 -425
l0 -420 -122 3 -123 3 -5 420 -5 420 -165 2 c-91 2 -171 -1 -178 -5z"/>
<path d="M14021 4296 c-8 -9 -10 -177 -9 -607 l3 -594 358 -3 c232 -1 357 1
357 8 0 13 -219 343 -234 352 -6 4 -35 8 -63 8 l-53 0 0 151 c0 95 4 149 10
147 5 -1 113 -151 238 -333 l229 -330 233 -3 c129 -1 237 1 241 5 7 8 -811
1191 -834 1205 -6 4 -114 8 -238 8 -179 0 -229 -3 -238 -14z"/>
<path d="M15203 4303 c-10 -3 -13 -50 -13 -184 l0 -179 240 0 240 0 2 -422 3
-423 180 0 180 0 3 423 2 422 240 0 240 0 0 179 c0 154 -2 180 -16 185 -19 7
-1283 7 -1301 -1z"/>
<path d="M16804 4301 c-44 -11 -88 -47 -115 -94 l-24 -42 -3 -447 c-2 -299 1
-461 8 -488 12 -46 59 -104 101 -126 24 -12 123 -14 624 -14 l595 0 -2 183 -3
182 -476 3 c-444 2 -477 3 -481 20 -2 9 -4 116 -3 237 l0 220 483 3 482 2 0
179 c0 154 -2 180 -16 185 -22 9 -1133 5 -1170 -3z"/>
<path d="M18154 4299 c-5 -8 -9 -956 -5 -1172 l1 -37 178 2 177 3 5 210 5 210
280 3 c154 1 290 0 303 -3 22 -5 22 -6 22 -215 l0 -210 180 0 180 0 -2 608 -3
607 -175 0 -175 0 -3 -212 -2 -213 -305 0 -305 0 0 209 c0 181 -2 210 -16 215
-29 11 -332 7 -340 -5z"/>
</g>
</svg>
